<?xml version="1.0" standalone="no"?> 
<!DOCTYPE svg PUBLIC "-//W3C//DTD SVG 1.1//EN" "http://www.w3.org/Graphics/SVG/1.1/DTD/svg11.dtd" >
<svg xmlns="http://www.w3.org/2000/svg">
<defs>
  <font id="wix-style-svg-font-icons" horiz-adv-x="445">
    <font-face font-family="wix-style-svg-font-icons"
      units-per-em="512" ascent="448"
      descent="64" />
    <missing-glyph horiz-adv-x="0" />
    <glyph glyph-name="arrow-down"
      unicode="&#xF101;"
      horiz-adv-x="810.910690717114" d=" M806.4056313242411 347.3119225692917L706.6185657721073 444.39595248570174L413.11394632644084 142.10646722393312L102.03959524857017 444.39595248570174L5.180818301803783 344.38363396392435L407.03211614606244 -41.699956005279375L418.06951165860096 -52.51209854817421z" />
    <glyph glyph-name="arrow-left"
      unicode="&#xF102;"
      horiz-adv-x="512" d=" M368.6144 2.099199999999996C375.47520000000003 -4.838400000000036 375.47520000000003 -16.02559999999994 368.6144 -22.963199999999972S350.6688 -29.900800000000004 343.808 -22.963199999999972L143.35999999999999 179.45600000000002C136.4992 186.39360000000005 136.4992 197.6064 143.35999999999999 204.5184L343.808 406.96320000000003C350.66880000000003 413.9008 361.7536 413.9008 368.6144 406.96320000000003S375.47520000000003 388.83840000000004 368.6144 381.9008L185.8304 192L368.6144 2.099199999999996z" />
    <glyph glyph-name="arrow-right"
      unicode="&#xF103;"
      horiz-adv-x="236.30769230769232" d=" M30.444307692307696 -64L0 -38.51815384615384L178.29415384615388 192L0 422.51815384615384L30.444307692307696 448L228.43076923076924 192L30.444307692307696 -64" />
    <glyph glyph-name="arrow-top"
      unicode="&#xF104;"
      horiz-adv-x="810.910690717114" d=" M806.4056313242411 42.09414870215579L706.6185657721073 -54.764628244610606L413.11394632644084 247.29960404751432L102.03959524857017 -54.764628244610606L5.180818301803783 45.02243730752309L407.03211614606244 431.33128024637045L418.06951165860096 442.1434227892653z" />
    <glyph glyph-name="arrow-up"
      unicode="&#xF105;"
      horiz-adv-x="853.3333333333333" d=" M85.33333333333333 21.33333333333337L426.66666666666663 362.6666666666667L768 21.33333333333337" />
    <glyph glyph-name="bulb"
      unicode="&#xF106;"
      horiz-adv-x="267.8361955085865" d=" M0 448H267.8361955085865V-64H0z M134.59445178335534 358.7212681638045L141.3579920739762 351.9577278731836L141.3579920739762 441.2364597093791L134.59445178335534 448z M194.7899603698811 351.2813738441215L201.55350066050198 344.5178335535007L224.54953764861295 385.0990752972259L217.78599735799207 391.8626155878468z M74.39894319682958 351.2813738441215L81.16248348745046 344.5178335535007L58.16644649933949 385.0990752972259L51.40290620871862 391.8626155878468z M0 448H267.8361955085865V-64H0z M190.73183619550858 211.2760898282695C197.49537648612943 204.51254953764862 198.17173051519154 194.36723910171733 190.73183619550858 186.92734478203437C181.26287978863937 177.45838837516516 160.29590488771464 180.8401585204756 160.29590488771464 180.8401585204756S156.9141347424042 201.8071334214003 166.3830911492734 211.2760898282695C173.82298546895638 218.71598414795247 183.9682959048877 218.0396301188904 190.73183619550858 211.2760898282695z M78.4570673712021 211.2760898282695C71.69352708058123 204.51254953764862 71.01717305151915 194.36723910171733 78.4570673712021 186.92734478203437C87.92602377807133 177.45838837516516 108.89299867899604 180.8401585204756 108.89299867899604 180.8401585204756S112.27476882430648 201.8071334214003 102.80581241743725 211.2760898282695C95.36591809775429 218.71598414795247 85.22060766182298 218.0396301188904 78.4570673712021 211.2760898282695z M68.3117569352708 36.10039630118894L75.07529722589167 29.336856010568056L202.90620871862615 29.336856010568056L196.14266842800527 36.10039630118894z M68.3117569352708 9.72258916776758L75.07529722589167 2.9590488771466994L202.90620871862615 2.9590488771466994L196.14266842800527 9.72258916776758z M68.3117569352708 -17.331571994715944L75.07529722589167 -24.095112285336768L202.90620871862615 -24.095112285336768L196.14266842800527 -17.331571994715944z M133.91809775429326 -53.85468956406868C144.73976221928666 -53.85468956406868 175.17569352708057 -38.97490092470275 192.08454425363274 -30.182298546895595C195.46631439894318 -28.153236459709376 197.49537648612943 -24.771466314398936 197.49537648612943 -20.713342140026384V36.10039630118894C197.49537648612943 83.44517833553505 257.6908850726552 112.52840158520485 257.6908850726552 194.36723910171733C257.6908850726552 262.6789960369881 202.22985468956406 318.14002642007927 133.91809775429326 318.14002642007927S10.145310435931307 262.6789960369881 10.145310435931307 194.36723910171733C10.145310435931307 111.85204755614268 70.34081902245707 83.44517833553505 70.34081902245707 36.10039630118894V-20.713342140026384C70.34081902245707 -24.771466314398822 72.36988110964333 -28.153236459709262 75.75165125495377 -30.182298546895595C92.66050198150593 -38.97490092470275 123.09643328929985 -53.85468956406868 133.91809775429326 -53.85468956406868z M120.39101717305151 36.10039630118894L127.15455746367239 29.336856010568056L114.9801849405548 174.07661822985472L108.21664464993394 180.8401585204756z M148.79788639365916 36.10039630118894L155.56142668428004 29.336856010568056L167.7357992073976 174.07661822985472L160.97225891677675 180.8401585204756z M160.97225891677675 180.8401585204756L167.7357992073976 174.07661822985472L114.9801849405548 174.07661822985472L108.21664464993394 180.8401585204756z" />
    <glyph glyph-name="chat"
      unicode="&#xF107;"
      horiz-adv-x="548.5714285714286" d=" M0 448L0 45.71428571428572L146.28571428571428 45.71428571428572L146.28571428571428 -64L182.85714285714283 -64L329.1428571428571 45.71428571428572L548.5714285714286 45.71428571428572L548.5714285714286 448L0 448L0 448zM512 82.28571428571433L329.1428571428571 82.28571428571433L182.85714285714283 -27.428571428571388L182.85714285714283 82.28571428571433L36.57142857142857 82.28571428571433L36.57142857142857 411.42857142857144L512 411.42857142857144L512 82.28571428571433L512 82.28571428571433z M146.28571428571428 338.2857142857143L402.2857142857143 338.2857142857143L402.2857142857143 301.7142857142857L146.28571428571428 301.7142857142857L146.28571428571428 338.2857142857143z M146.28571428571428 265.14285714285717L402.2857142857143 265.14285714285717L402.2857142857143 228.57142857142858L146.28571428571428 228.57142857142858L146.28571428571428 265.14285714285717z M146.28571428571428 192L402.2857142857143 192L402.2857142857143 155.42857142857144L146.28571428571428 155.42857142857144L146.28571428571428 192z" />
    <glyph glyph-name="check"
      unicode="&#xF108;"
      horiz-adv-x="597.3333333333333" d=" M0.6033477845333333 162.72467626666668C2.8982706687999995 145.14491221333333 11.482982229333333 128.59925162666667 25.592508074666668 117.13010005333336L233.24052992 -50.206695253333294C261.2045909333333 -72.95697919999998 300.89825706666664 -66.94037503999994 322.06254592 -36.76334591999995L584.3637307733333 337.3942084266667C605.6980138666667 367.7592562346667 600.0882030933333 410.9095872853333 572.12414208 434.03590852266666C544.0750848 456.974210816 504.2114244266666 451.05161639253333 482.87714133333327 420.6865686186667L258.82467072 101.24250538666672L101.91994282666667 227.4971776C73.70089139199999 250.34147072000002 33.75223381333333 244.13684821333334 12.672942165333334 213.58378154666667C2.218293512533333 198.44826197333336 -1.6065779541333332 180.02241279999998 0.6033477845333333 162.72467626666668" />
    <glyph glyph-name="close"
      unicode="&#xF109;"
      horiz-adv-x="512" d=" M512 405.7731958762888L475.0515463917526 448L258.639175257732 226.30927835051548L42.22680412371133 448L0 405.7731958762888L221.69072164948457 189.3608247422681L0 -27.051546391752595L42.22680412371133 -64L258.639175257732 152.4123711340207L475.0515463917526 -64L512 -27.051546391752595L295.5876288659794 189.3608247422681z" />
    <glyph glyph-name="data-picker-arrow"
      unicode="&#xF10A;"
      horiz-adv-x="315.0769230769231" d=" M313.26523076923075 201.92492307692305L39.18769230769231 -63.96061538461544L0 -26.07261538461546L233.472 200.4283076923077L0.5513846153846155 410.30892307692307L39.69969230769231 448L272.5021538461538 238.27692307692305L313.26523076923075 201.92492307692305" />
    <glyph glyph-name="download"
      unicode="&#xF10B;"
      horiz-adv-x="548.5714285714286" d=" M512 155.42857142857144L512 27.428571428571445C512 -2.815999999999974 487.38742857142853 -27.428571428571388 457.1428571428571 -27.428571428571388L91.42857142857142 -27.428571428571388C61.184 -27.428571428571388 36.57142857142857 -2.815999999999974 36.57142857142857 27.428571428571445L36.57142857142857 155.42857142857144L0 155.42857142857144L0 27.428571428571445C0 -22.966857142857123 41.033142857142856 -64 91.42857142857142 -64L457.1428571428571 -64C507.5382857142857 -64 548.5714285714286 -22.966857142857123 548.5714285714286 27.428571428571445L548.5714285714286 155.42857142857144L512 155.42857142857144 M292.57142857142856 141.64114285714282L292.57142857142856 448L256 448L256 141.64114285714282L156.59885714285713 240.31085714285715L135.97257142857143 219.53828571428573L274.2857142857143 82.28571428571433L412.5988571428571 219.53828571428573L391.9725714285714 240.31085714285715L292.57142857142856 141.64114285714282" />
    <glyph glyph-name="drag"
      unicode="&#xF10C;"
      horiz-adv-x="139.63636363636363" d=" M93.0909090909091 -17.454545454545496L139.63636363636363 -17.454545454545496L139.63636363636363 -64L93.0909090909091 -64L93.0909090909091 -17.454545454545496zM93.0909090909091 98.90909090909088L139.63636363636363 98.90909090909088L139.63636363636363 52.363636363636374L93.0909090909091 52.363636363636374L93.0909090909091 98.90909090909088zM93.0909090909091 215.27272727272725L139.63636363636363 215.27272727272725L139.63636363636363 168.72727272727275L93.0909090909091 168.72727272727275L93.0909090909091 215.27272727272725zM93.0909090909091 331.6363636363636L139.63636363636363 331.6363636363636L139.63636363636363 285.0909090909091L93.0909090909091 285.0909090909091L93.0909090909091 331.6363636363636zM93.0909090909091 448L139.63636363636363 448L139.63636363636363 401.45454545454544L93.0909090909091 401.45454545454544L93.0909090909091 448zM0 -17.454545454545496L46.54545454545455 -17.454545454545496L46.54545454545455 -64L0 -64L0 -17.454545454545496zM0 98.90909090909088L46.54545454545455 98.90909090909088L46.54545454545455 52.363636363636374L0 52.363636363636374L0 98.90909090909088zM0 215.27272727272725L46.54545454545455 215.27272727272725L46.54545454545455 168.72727272727275L0 168.72727272727275L0 215.27272727272725zM0 331.6363636363636L46.54545454545455 331.6363636363636L46.54545454545455 285.0909090909091L0 285.0909090909091L0 331.6363636363636zM0 448L46.54545454545455 448L46.54545454545455 401.45454545454544L0 401.45454545454544L0 448z" />
    <glyph glyph-name="duplication"
      unicode="&#xF10D;"
      horiz-adv-x="438.85714285714283" d=" M362.8617142857143 45.71428571428572L180.0045714285714 45.71428571428572C139.59314285714285 45.71428571428572 109.71428571428571 78.18971428571433 109.71428571428571 118.60114285714286L109.71428571428571 374.60114285714286C109.71428571428571 414.976 139.59314285714285 448 180.0045714285714 448L289.71885714285713 448L438.85714285714283 301.4217142857143L438.85714285714283 118.60114285714286C438.85714285714283 78.37257142857146 403.0902857142857 45.71428571428572 362.8617142857143 45.71428571428572L362.8617142857143 45.71428571428572zM365.71428571428567 265.14285714285717L256 265.14285714285717L256 374.8571428571429L182.85714285714283 374.8571428571429L182.85714285714283 118.85714285714289L365.71428571428567 118.85714285714289L365.71428571428567 265.14285714285717L365.71428571428567 265.14285714285717zM329.1428571428571 -64L106.86171428571429 -64C46.33599999999999 -64 0 -15.067428571428593 0 45.42171428571436L0 301.7142857142857L73.14285714285714 301.7142857142857L73.14285714285714 45.42171428571436C73.14285714285714 25.27085714285721 86.71085714285714 9.142857142857167 106.86171428571429 9.142857142857167L329.1428571428571 9.142857142857167L329.1428571428571 -64L329.1428571428571 -64z" />
    <glyph glyph-name="finder"
      unicode="&#xF10E;"
      horiz-adv-x="496.6706586826347" d=" M496.6706586826347 -45.6047904191617L377.1017964071856 86.22754491017963C410.82634730538916 123.01796407185623 429.2215568862275 175.13772455089816 429.2215568862275 227.25748502994003C429.2215568862275 346.8263473053891 334.17964071856284 444.9341317365269 214.61077844311376 444.9341317365269C95.04191616766467 444.9341317365269 0 346.8263473053892 0 227.25748502994003S95.04191616766467 9.580838323353134 214.61077844311376 9.580838323353134C269.79640718562877 9.580838323353134 315.7844311377246 31.04191616766451 355.64071856287427 61.700598802395064L475.20958083832335 -70.13173652694627L496.6706586826347 -45.6047904191617zM30.65868263473054 230.32335329341313C30.65868263473054 334.5628742514969 113.43712574850298 417.34131736526945 214.61077844311376 417.34131736526945S398.562874251497 334.562874251497 398.562874251497 230.32335329341313C398.562874251497 126.08383233532936 315.7844311377246 43.30538922155682 214.61077844311376 43.30538922155682S30.65868263473054 129.14970059880233 30.65868263473054 230.32335329341313z" />
    <glyph glyph-name="help"
      unicode="&#xF10F;"
      horiz-adv-x="512" d=" M256 -64C114.82453333333332 -64 0 50.82453333333336 0 192C0 333.1754666666667 114.82453333333332 448 256 448C397.17546666666664 448 512 333.1754666666667 512 192C512 50.82453333333336 397.17546666666664 -64 256 -64L256 -64zM256 413.8666666666667C133.66613333333333 413.8666666666667 34.13333333333333 314.33386666666667 34.13333333333333 192C34.13333333333333 69.66613333333333 133.66613333333333 -29.866666666666674 256 -29.866666666666674C378.33386666666667 -29.866666666666674 477.8666666666667 69.66613333333333 477.8666666666667 192C477.8666666666667 314.33386666666667 378.33386666666667 413.8666666666667 256 413.8666666666667L256 413.8666666666667zM330.10346666666663 215.8250666666667C326.82666666666665 210.36373333333336 323.072 205.31199999999998 318.8394666666666 200.66986666666665C314.60693333333336 196.02773333333334 310.3061333333333 191.52213333333333 305.9370666666666 187.15306666666663C301.56800000000004 183.05706666666669 297.2672 178.89279999999997 293.0346666666667 174.6602666666667C288.80213333333336 170.42773333333332 284.9792 165.92213333333336 281.5658666666667 161.14346666666665C278.1525333333333 156.3648 272.9642666666667 151.10826666666668 270.9162666666667 145.3738666666667C268.86826666666667 139.63946666666664 265.3525333333333 133.3589333333333 265.3525333333333 126.53226666666671L265.3525333333333 107.55413333333331L231.2192 107.55413333333331L231.2192 129.8090666666667C231.2192 138.27413333333334 234.53013333333334 145.81760000000003 236.8512 152.33706666666666C239.17226666666664 158.89066666666668 243.16586666666666 164.8981333333333 246.71573333333333 170.35946666666666C250.26559999999998 175.82080000000002 254.73706666666666 180.80426666666665 259.14026666666666 185.30986666666666C263.5093333333333 189.8496 267.9808 194.1504 272.0768 198.2122666666667C276.1728 202.30826666666667 280.33706666666666 206.40426666666667 284.29653333333334 210.50026666666668C288.25600000000003 214.59626666666668 291.87413333333336 219.0336 295.0144 223.8122666666667C298.1546666666666 228.59093333333334 300.64639999999997 233.91573333333332 302.42133333333334 239.7866666666667C304.1962666666667 245.6576 304.81066666666663 252.416 304.2645333333333 260.0618666666667C303.2064 275.08053333333334 298.35946666666666 286.8224 289.7578666666667 295.28746666666666C281.1562666666667 303.7525333333333 269.48266666666666 307.9850666666666 254.73706666666666 307.9850666666666C244.90666666666667 307.9850666666666 236.4416 306.2101333333334 229.34186666666668 302.66026666666664C222.24213333333333 299.1104 216.30293333333333 294.3317333333333 211.52426666666668 288.32426666666663C206.7456 282.3168 203.264 277.0261333333333 201.07946666666666 268.69759999999997C198.89493333333334 260.36906666666664 197.80266666666665 244.08746666666667 197.80266666666665 244.08746666666667L162.98666666666668 244.08746666666667C162.7136 244.08746666666667 164.69333333333333 269.14133333333336 168.92586666666665 281.1904C173.1584 293.1712 179.23413333333335 302.6944 187.15306666666666 311.6032C195.072 320.47786666666667 204.6976 326.8949333333333 216.02986666666666 331.81013333333334C227.3621333333333 336.7253333333333 240.26453333333333 338.944 254.73706666666666 338.944C267.29813333333334 338.944 278.90346666666665 336.9984 289.55306666666667 333.312C300.2026666666667 329.6256 309.35040000000004 324.2325333333333 316.9962666666667 317.2693333333333C324.6421333333333 310.3061333333334 330.58133333333336 301.73866666666663 334.8138666666666 291.6352C339.0464 281.53173333333336 341.1626666666666 269.9264 341.1626666666666 256.8192C341.1626666666666 248.35413333333332 340.13866666666667 240.7424 338.09066666666666 234.0864C336.04266666666666 227.36213333333333 333.38026666666667 221.2864 330.10346666666663 215.8250666666667L330.10346666666663 215.8250666666667zM231.2192 73.42079999999999L265.3525333333333 73.42079999999999L265.3525333333333 39.28746666666666L231.2192 39.28746666666666L231.2192 73.42079999999999z" />
    <glyph glyph-name="info"
      unicode="&#xF110;"
      horiz-adv-x="512" d=" M234.71460674157305 138.49887640449435H278.4359550561798V94.7775280898876H234.71460674157305z M233.56404494382025 291.523595505618H277.285393258427V160.35955056179773H233.56404494382025z M255.42471910112363 422.1123595505618C129.20808988764045 422.1123595505618 26.46292134831461 319.36719101123595 26.46292134831461 193.1505617977528C26.46292134831461 66.93393258426966 129.20808988764045 -35.81123595505625 255.42471910112363 -35.81123595505625C381.6413483146068 -35.81123595505625 484.3865168539326 66.93393258426966 484.3865168539326 193.1505617977528C484.3865168539326 319.36719101123595 381.6413483146068 422.1123595505618 255.42471910112363 422.1123595505618zM255.42471910112363 -13.950561797752869C141.1739325842697 -13.950561797752869 48.32359550561798 79.01483146067415 48.32359550561798 193.1505617977528S141.28898876404494 400.2516853932584 255.42471910112363 400.2516853932584S462.52584269662924 307.28629213483146 462.52584269662924 193.1505617977528S369.6755056179776 -13.950561797752869 255.42471910112363 -13.950561797752869z" />
    <glyph glyph-name="pen"
      unicode="&#xF111;"
      horiz-adv-x="512" d=" M501.4628571428571 282.2144L432.9942857142857 214.08426678857145L276.44571428571425 369.9029332114286L344.9142857142857 438.0672C358.21714285714285 451.3109333321143 379.7828571428571 451.3109333321143 393.08571428571423 438.0672L501.4628571428571 330.1717332114286C514.7314285714285 316.928 514.7314285714285 295.4581332114286 501.4628571428571 282.2144L501.4628571428571 282.2144zM243.9085714285714 25.83893211428574L243.9085714285714 25.83893211428574L0 -61.16693211428566L87.36 181.6576L228.30857142857144 321.9456L384.8228571428572 166.1269332114286L243.9085714285714 25.83893211428574L243.9085714285714 25.83893211428574zM101.28 119.84213321142857L56.36571428571428 -5.051732114285699L181.81714285714284 39.69706788571432L101.28 119.84213321142857L101.28 119.84213321142857z" />
    <glyph glyph-name="plaster"
      unicode="&#xF112;"
      horiz-adv-x="512" d=" M430.42711864406783 188.52881355932203L499.85084745762714 257.95254237288134C507.66101694915255 265.7627118644068 512 276.1762711864407 512 286.5898305084746C512 297.871186440678 507.66101694915255 308.28474576271185 499.85084745762714 315.2271186440678L379.22711864406784 435.85084745762714C371.4169491525424 443.66101694915255 361.00338983050847 448 349.7220338983051 448C338.4406779661017 448 328.0271186440678 443.66101694915255 321.08474576271186 435.85084745762714L251.66101694915255 366.4271186440678L178.76610169491528 439.3220338983051C168.35254237288137 449.735593220339 150.99661016949153 449.735593220339 140.58305084745766 439.3220338983051L7.810169491525427 306.5491525423729C2.603389830508473 302.21016949152545 0 295.2677966101695 0 287.45762711864404C0 280.5152542372881 2.603389830508473 273.57288135593217 7.810169491525427 268.3661016949153L80.70508474576272 195.47118644067797L11.281355932203397 126.04745762711866C-4.33898305084745 110.42711864406783 -4.33898305084745 84.39322033898304 11.281355932203397 67.90508474576268L131.90508474576274 -52.71864406779662C139.71525423728815 -60.52881355932203 150.12881355932208 -64.86779661016953 160.54237288135596 -64.86779661016953C170.95593220338986 -64.86779661016953 181.36949152542374 -60.52881355932203 189.17966101694918 -52.71864406779662L258.6033898305085 16.70508474576269L331.49830508474577 -56.189830508474586C336.70508474576275 -61.39661016949157 343.6474576271187 -64 350.5898305084746 -64C357.53220338983056 -64 364.4745762711865 -61.39661016949157 369.6813559322035 -56.189830508474586L503.3220338983051 77.4508474576271C508.52881355932203 82.65762711864403 511.1322033898305 89.59999999999997 511.1322033898305 96.54237288135596C511.1322033898305 103.48474576271184 508.52881355932203 110.42711864406783 503.3220338983051 115.63389830508476L430.42711864406783 188.52881355932203zM26.033898305084747 287.45762711864404V289.19322033898305L158.80677966101695 421.96610169491527C158.80677966101695 421.96610169491527 159.67457627118645 421.96610169491527 160.54237288135593 421.96610169491527L233.4372881355932 349.07118644067793L98.92881355932202 213.6949152542373L26.033898305084747 287.45762711864404zM171.82372881355934 -33.62711864406782C165.74915254237288 -39.70169491525428 156.20338983050848 -39.70169491525428 150.99661016949153 -33.62711864406782L30.372881355932204 86.99661016949153C24.29830508474576 93.07118644067799 24.29830508474576 102.61694915254236 30.372881355932204 107.82372881355928L339.3084745762712 417.6271186440678C342.77966101694915 420.23050847457625 346.2508474576271 421.96610169491527 349.7220338983051 421.96610169491527C353.193220338983 421.96610169491527 357.53220338983044 420.23050847457625 360.135593220339 417.6271186440678L480.7593220338983 297.00338983050847C486.83389830508474 290.928813559322 486.83389830508474 281.38305084745764 480.7593220338983 276.17627118644066L171.82372881355934 -33.62711864406782zM485.09830508474573 95.67457627118642L352.3254237288136 -37.96610169491527C352.3254237288136 -37.96610169491527 351.45762711864404 -37.96610169491527 350.58983050847456 -37.96610169491527L277.6949152542373 35.796610169491544L412.20338983050846 170.3050847457627L485.09830508474573 97.41016949152544C485.96610169491527 96.54237288135596 485.96610169491527 95.67457627118642 485.09830508474573 95.67457627118642z M258.60338983050843 299.60677966101696C256.8677966101694 301.3423728813559 254.264406779661 301.3423728813559 252.52881355932197 299.60677966101696L148.393220338983 195.47118644067797C146.65762711864403 193.73559322033898 146.65762711864403 191.13220338983052 148.393220338983 189.3966101694915L252.52881355932197 85.26101694915258C253.39661016949148 84.39322033898304 254.264406779661 84.39322033898304 255.99999999999994 84.39322033898304S258.6033898305084 84.39322033898304 259.4711864406779 85.26101694915258L363.6067796610169 189.39661016949157C365.34237288135586 191.13220338983052 365.34237288135586 193.735593220339 363.6067796610169 195.471186440678L258.60338983050843 299.60677966101696zM256 93.93898305084747L157.93898305084744 192L256 290.06101694915253L354.06101694915253 192L256 93.93898305084747z M347.1186440677966 361.22033898305085C347.1186440677966 354.0312764767788 352.94653071406697 348.20338983050846 360.135593220339 348.20338983050846C367.324655726611 348.20338983050846 373.1525423728813 354.0312764767788 373.1525423728813 361.22033898305085C373.1525423728813 368.4094014893229 367.324655726611 374.2372881355932 360.135593220339 374.2372881355932C352.94653071406697 374.2372881355932 347.1186440677966 368.4094014893229 347.1186440677966 361.22033898305085z M301.1254237288136 316.0949152542373C301.1254237288136 308.9058527479653 306.9533103750839 303.0779661016949 314.142372881356 303.0779661016949C321.331435387628 303.0779661016949 327.1593220338983 308.9058527479653 327.1593220338983 316.0949152542373C327.1593220338983 323.2839777605093 321.331435387628 329.11186440677966 314.142372881356 329.11186440677966C306.9533103750839 329.11186440677966 301.1254237288136 323.2839777605093 301.1254237288136 316.0949152542373z M412.20338983050846 296.135593220339C412.20338983050846 288.94653071406697 418.0312764767788 283.1186440677966 425.22033898305085 283.1186440677966C432.4094014893229 283.1186440677966 438.23728813559325 288.94653071406697 438.23728813559325 296.135593220339C438.23728813559325 303.324655726611 432.4094014893229 309.1525423728814 425.22033898305085 309.1525423728814C418.0312764767788 309.1525423728814 412.20338983050846 303.324655726611 412.20338983050846 296.135593220339z M366.21016949152545 250.14237288135593C366.21016949152545 242.9533103750839 372.03805613779576 237.12542372881356 379.22711864406784 237.12542372881356C386.41618115033987 237.12542372881356 392.2440677966102 242.9533103750839 392.2440677966102 250.14237288135593C392.2440677966102 257.33143538762795 386.41618115033987 263.1593220338983 379.22711864406784 263.1593220338983C372.03805613779576 263.1593220338983 366.21016949152545 257.33143538762795 366.21016949152545 250.14237288135593z M356.664406779661 305.6813559322034C356.664406779661 298.4922934259314 362.4922934259314 292.664406779661 369.6813559322034 292.664406779661C376.87041843847544 292.664406779661 382.69830508474575 298.4922934259314 382.69830508474575 305.6813559322034C382.69830508474575 312.87041843847544 376.87041843847544 318.69830508474575 369.6813559322034 318.69830508474575C362.4922934259314 318.69830508474575 356.664406779661 312.87041843847544 356.664406779661 305.6813559322034z M118.88813559322033 133.85762711864402C118.88813559322033 126.668564612372 124.71602223949067 120.84067796610168 131.9050847457627 120.84067796610168C139.09414725203473 120.84067796610168 144.92203389830507 126.668564612372 144.92203389830507 133.85762711864402C144.92203389830507 141.0466896249161 139.09414725203473 146.8745762711864 131.9050847457627 146.8745762711864C124.71602223949067 146.8745762711864 118.88813559322033 141.0466896249161 118.88813559322033 133.85762711864402z M72.89491525423729 87.86440677966101C72.89491525423729 80.67534427338899 78.72280190050765 74.84745762711867 85.91186440677967 74.84745762711867C93.10092691305168 74.84745762711867 98.92881355932202 80.67534427338899 98.92881355932202 87.86440677966101C98.92881355932202 95.05346928593303 93.10092691305168 100.8813559322034 85.91186440677967 100.8813559322034C78.72280190050765 100.8813559322034 72.89491525423729 95.05346928593303 72.89491525423729 87.86440677966101z M183.9728813559322 67.90508474576274C183.9728813559322 60.71602223949071 189.80076800220255 54.88813559322034 196.98983050847457 54.88813559322034C204.1788930147466 54.88813559322034 210.00677966101694 60.71602223949071 210.00677966101694 67.90508474576274C210.00677966101694 75.09414725203476 204.1788930147466 80.92203389830513 196.98983050847457 80.92203389830513C189.80076800220255 80.92203389830513 183.9728813559322 75.09414725203476 183.9728813559322 67.90508474576274z M137.97966101694914 22.77966101694915C137.97966101694914 15.590598510677125 143.80754766321948 9.762711864406754 150.9966101694915 9.762711864406754C158.18567267576356 9.762711864406754 164.0135593220339 15.590598510677125 164.0135593220339 22.77966101694915C164.0135593220339 29.968723523221172 158.18567267576356 35.796610169491544 150.9966101694915 35.796610169491544C143.80754766321948 35.796610169491544 137.97966101694914 29.968723523221172 137.97966101694914 22.77966101694915z M128.43389830508474 78.31864406779658C128.43389830508474 71.12958156152456 134.26178495135508 65.30169491525425 141.45084745762713 65.30169491525425C148.63990996389916 65.30169491525425 154.4677966101695 71.12958156152456 154.4677966101695 78.31864406779658C154.4677966101695 85.5077065740686 148.63990996389916 91.33559322033898 141.45084745762713 91.33559322033898C134.26178495135508 91.33559322033898 128.43389830508474 85.5077065740686 128.43389830508474 78.31864406779658z" />
    <glyph glyph-name="plus-with-circle"
      unicode="&#xF113;"
      horiz-adv-x="512" d=" M288.53038674033144 292.41988950276243L234.78453038674033 292.41988950276243L234.78453038674033 216.04419889502765L155.58011049723757 216.04419889502765L155.58011049723757 159.46961325966856L234.78453038674033 159.46961325966856L234.78453038674033 80.26519337016578L288.53038674033144 80.26519337016578L288.53038674033144 159.46961325966856L367.7348066298342 159.46961325966856L367.7348066298342 216.04419889502765L288.53038674033144 216.04419889502765z M254.585635359116 448C113.14917127071823 448 0 332.0220994475139 0 193.414364640884C0 51.977900552486176 115.97790055248618 -63.99999999999994 254.585635359116 -63.99999999999994S509.171270718232 51.97790055248629 509.171270718232 193.4143646408841C512 334.8508287292818 396.0220994475138 448 254.585635359116 448zM254.585635359116 -35.712707182320344C130.12154696132595 -35.712707182320344 28.287292817679557 66.12154696132609 28.287292817679557 193.4143646408841C28.287292817679557 317.87845303867414 130.12154696132595 419.7127071823205 254.585635359116 419.7127071823205S480.88397790055245 317.87845303867414 480.88397790055245 193.4143646408841C483.71270718232046 66.12154696132598 381.878453038674 -35.712707182320344 254.585635359116 -35.712707182320344z M172.5524861878453 193.414364640884H347.9337016574586V182.0994475138122H172.5524861878453V193.414364640884z" />
    <glyph glyph-name="plus"
      unicode="&#xF114;"
      horiz-adv-x="512" d=" M491.7501123595506 218.23280898876405L282.2328089887641 218.23280898876405L282.2328089887641 427.75011235955054L229.76719101123595 427.75011235955054L229.76719101123595 218.23280898876405L20.24988764044944 218.23280898876405L20.24988764044944 165.76719101123592L229.76719101123595 165.76719101123592L229.76719101123595 -43.7501123595506L282.2328089887641 -43.7501123595506L282.2328089887641 165.76719101123592L491.7501123595506 165.76719101123592z" />
    <glyph glyph-name="search"
      unicode="&#xF115;"
      horiz-adv-x="513.8107352689522" d=" M513.6647082311335 -43.52700929781531L493.27933375164 -63.912383777308776L364.39587017283674 64.94187439393073C325.64029433574814 30.5671096914038 275.20255547316185 9.013518909360528 219.30340539615543 9.013518909360528C98.04255319148938 9.013518909360528 -0.23364326050995382 107.31892076892359 -0.23364326050995382 228.55056756602588C-0.23364326050995382 349.8114197706919 98.04255319148938 448.116821630255 219.30340539615543 448.116821630255C340.5642576008214 448.116821630255 438.84045405282075 349.8114197706919 438.84045405282075 228.55056756602588C438.84045405282075 173.615195938623 417.95858764474366 124.0244138953853 384.60601220694775 85.50248131880664L513.6647082311335 -43.52700929781531zM407.1525868461583 231.6755461753465C407.1525868461583 335.2087159888198 323.2454509155211 419.115851919457 219.74148650961158 419.115851919457C116.23752210370202 419.115851919457 32.301180765501115 335.2087159888198 32.301180765501115 231.6755461753465C32.301180765501115 128.17158176943695 116.23752210370202 44.264445838799816 219.74148650961158 44.264445838799816C323.2454509155211 44.264445838799816 407.1525868461583 128.17158176943695 407.1525868461583 231.6755461753465z" />
    <glyph glyph-name="toggle-off"
      unicode="&#xF116;"
      horiz-adv-x="2304" d=" M2048 -64H256C102.4 -64 0 38.39999999999998 0 192V192C0 320 102.4 448 256 448H2048C2176 448 2304 345.6 2304 192V192C2304 38.39999999999998 2201.6 -64 2048 -64z" />
    <glyph glyph-name="toggle-on"
      unicode="&#xF117;"
      horiz-adv-x="660.6451612903226" d=" M0 158.9677419354839C0 142.4516129032258 16.516129032258064 125.93548387096774 24.774193548387096 117.67741935483872L255.99999999999997 -47.48387096774195C289.0322580645161 -72.25806451612902 330.3225806451612 -64 355.09677419354836 -30.967741935483843L644.1290322580645 348.9032258064516C677.1612903225806 365.4193548387097 668.9032258064516 406.7096774193548 635.8709677419355 431.48387096774195C602.8387096774193 456.258064516129 561.5483870967741 448 536.7741935483871 423.2258064516129L289.0322580645161 101.16129032258061L115.61290322580643 225.03225806451613C82.58064516129032 249.80645161290323 41.29032258064516 241.5483870967742 16.516129032258064 208.51612903225808C0 200.25806451612902 0 175.48387096774195 0 158.9677419354839z" />
    <glyph glyph-name="trash-can"
      unicode="&#xF118;"
      horiz-adv-x="448.7191011235955" d=" M208.25168539325844 236.29662921348313H240.4674157303371V14.238202247190998H208.25168539325844z M142.66966292134833 236.29662921348313H174.88539325842697V14.238202247190998H142.66966292134833z M273.83370786516855 236.29662921348313H307.20000000000005V14.238202247190998H273.83370786516855z M307.20000000000005 373.2134831460674V437.64494382022474H142.66966292134833V373.2134831460674H10.355056179775282V339.84719101123596H43.72134831460674V-54.7955056179776H404.9977528089888V339.84719101123596H438.36404494382026V373.2134831460674H307.20000000000005zM174.88539325842697 406.57977528089884H273.83370786516855V372.0629213483146H174.88539325842697V406.57977528089884zM372.7820224719101 -22.5797752808989H77.08764044943821V339.84719101123596H372.7820224719101V-22.5797752808989z" />
    <glyph glyph-name="validation"
      unicode="&#xF119;"
      horiz-adv-x="93.0909090909091" d=" M46.54545454545455 122.18181818181819C18.61818181818182 122.18181818181819 0 140.7999999999999 0 168.72727272727275V401.45454545454544C0 429.38181818181823 18.61818181818182 448 46.54545454545455 448S93.0909090909091 429.38181818181823 93.0909090909091 401.45454545454544V168.72727272727275C93.0909090909091 140.7999999999999 74.47272727272728 122.18181818181819 46.54545454545455 122.18181818181819L46.54545454545455 122.18181818181819L46.54545454545455 122.18181818181819zM46.54545454545455 29.090909090909065C74.47272727272728 29.090909090909065 93.0909090909091 10.472727272727354 93.0909090909091 -17.454545454545496S74.47272727272728 -64 46.54545454545455 -64S0 -45.38181818181829 0 -17.454545454545496S18.61818181818182 29.090909090909065 46.54545454545455 29.090909090909065L46.54545454545455 29.090909090909065L46.54545454545455 29.090909090909065z" />
    <glyph glyph-name="view"
      unicode="&#xF11A;"
      horiz-adv-x="725.3333333333333" d=" M703.5733333333333 185.90194858666666C699.3422208 194.85538474666666 597.3119999999999 405.3333333333333 362.66666666666663 405.3333333333333C128.02133333333333 405.3333333333333 25.991111125333333 194.85538474666666 21.759999999999998 185.90194858666666L18.415407402666666 178.8619485866667L21.759999999999998 171.85805141333333C25.991111125333333 162.90461525333336 128.02133333333333 -47.57333333333332 362.66666666666663 -47.57333333333332C597.3119999999999 -47.57333333333332 699.3422208 162.90461525333336 703.5733333333333 171.85805141333333L706.9179263999999 178.8619485866667L703.5733333333333 185.90194858666666L703.5733333333333 185.90194858666666zM362.66666666666663 -11.470769066666662C177.66637056000002 -11.470769066666662 81.88207402666666 143.69805141333336 62.539851946666666 178.89805141333335C81.80148138666667 214.13415381333334 177.18281472 369.23076923733333 362.66666666666663 369.23076923733333C547.6669610666667 369.23076923733333 643.4512597333332 214.0619485866667 662.7934805333333 178.8619485866667C643.5318528 143.62584618666665 548.1505194666667 -11.470769066666662 362.66666666666663 -11.470769066666662L362.66666666666663 -11.470769066666662z M362.66666666666663 287.16964096000004C296.01659264 287.16964096000004 241.77777791999998 238.61169237333337 241.77777791999998 178.8619485866667C241.77777791999998 119.14830762666668 296.01659264 70.55425621333336 362.66666666666663 70.55425621333336C429.3167402666666 70.55425621333336 483.5555541333333 119.14830762666668 483.5555541333333 178.8619485866667C483.5555541333333 238.61169237333337 429.3167402666666 287.16964096000004 362.66666666666663 287.16964096000004L362.66666666666663 287.16964096000004zM362.66666666666663 106.65682048000002C318.21985194666667 106.65682048000002 282.07407402666666 139.07692287999998 282.07407402666666 178.8619485866667C282.07407402666666 218.71917952 318.21985194666667 251.06707712000002 362.66666666666663 251.06707712000002C407.11348138666665 251.06707712000002 443.2592597333333 218.71917952 443.2592597333333 178.8619485866667C443.2592597333333 139.07692287999998 407.11348138666665 106.65682048000002 362.66666666666663 106.65682048000002L362.66666666666663 106.65682048000002z" />
    <glyph glyph-name="x"
      unicode="&#xF11B;"
      horiz-adv-x="512" d=" M307.80509090909095 192.37236363636362C307.80509090909095 192.37236363636362 506.5541818181818 -6.376727272727294 506.5541818181818 -6.376727272727294C513.7221818181819 -13.5447272727273 513.7221818181819 -25.22763636363635 506.5541818181818 -32.44218181818178C506.5541818181818 -32.44218181818178 480.4887272727273 -58.50763636363638 480.4887272727273 -58.50763636363638C473.2741818181818 -65.67563636363639 461.63781818181815 -65.67563636363639 454.4232727272727 -58.50763636363638C454.4232727272727 -58.50763636363638 255.72072727272726 140.24145454545453 255.72072727272726 140.24145454545453C255.72072727272726 140.24145454545453 56.971636363636364 -58.50763636363638 56.971636363636364 -58.50763636363638C49.757090909090905 -65.67563636363639 38.12072727272727 -65.67563636363639 30.90618181818182 -58.50763636363638C30.90618181818182 -58.50763636363638 4.840727272727273 -32.44218181818178 4.840727272727273 -32.44218181818178C-2.3272727272727276 -25.22763636363635 -2.3272727272727276 -13.5447272727273 4.840727272727273 -6.376727272727294C4.840727272727273 -6.376727272727294 203.58981818181817 192.37236363636362 203.58981818181817 192.37236363636362C203.58981818181817 192.37236363636362 4.840727272727273 391.0749090909091 4.840727272727273 391.0749090909091C-2.3272727272727276 398.28945454545453 -2.3272727272727276 409.92581818181816 4.840727272727273 417.14036363636365C4.840727272727273 417.14036363636365 30.90618181818182 443.2058181818182 30.90618181818182 443.2058181818182C38.12072727272727 450.3738181818182 49.757090909090905 450.3738181818182 56.971636363636364 443.2058181818182C56.971636363636364 443.2058181818182 255.72072727272726 244.45672727272725 255.72072727272726 244.45672727272725C255.72072727272726 244.45672727272725 454.4232727272727 443.2058181818182 454.4232727272727 443.2058181818182C461.63781818181815 450.3738181818182 473.2741818181818 450.3738181818182 480.4887272727273 443.2058181818182C480.4887272727273 443.2058181818182 506.5541818181818 417.14036363636365 506.5541818181818 417.14036363636365C513.7221818181819 409.92581818181816 513.7221818181819 398.28945454545453 506.5541818181818 391.0749090909091C506.5541818181818 391.0749090909091 307.80509090909095 192.37236363636362 307.80509090909095 192.37236363636362z" />
  </font>
</defs>
</svg>
